<svg width="1024" height="1024" viewBox="0 0 1024 1024" fill="none" xmlns="http://www.w3.org/2000/svg">
<g clip-path="url(#clip0_19_4)">
<path d="M784 0H240C107.452 0 0 107.452 0 240V784C0 916.548 107.452 1024 240 1024H784C916.548 1024 1024 916.548 1024 784V240C1024 107.452 916.548 0 784 0Z" fill="#007AFF"/>
<mask id="mask0_19_4" style="mask-type:alpha" maskUnits="userSpaceOnUse" x="112" y="112" width="800" height="800">
<rect x="112" y="112" width="800" height="800" fill="white"/>
</mask>
<g mask="url(#mask0_19_4)">
<path d="M470.333 844.333C430.333 839.333 392.972 827.389 358.25 808.5C323.528 789.611 293.528 765.583 268.25 736.417C242.972 707.25 223.111 673.639 208.667 635.583C194.222 597.528 187 556.556 187 512.667C187 463.778 198.528 417.111 221.583 372.667C244.639 328.222 275.611 288.778 314.5 254.333H212.833V204.333H403.667V395.167H353.667V287.667C318.111 316 289.778 349.75 268.667 388.917C247.556 428.083 237 469.333 237 512.667C237 586 259.222 648.639 303.667 700.583C348.111 752.528 403.667 783.5 470.333 793.5V844.333ZM464.5 654.333L335.333 525.167L370.333 490.167L464.5 584.333L653.667 395.167L688.667 430.167L464.5 654.333ZM620.333 821V630.167H670.333V737.667C705.889 708.778 734.222 674.889 755.333 636C776.444 597.111 787 556 787 512.667C787 439.333 764.778 376.694 720.333 324.75C675.889 272.806 620.333 241.833 553.667 231.833V181C634.778 191 702.278 226.833 756.167 288.5C810.056 350.167 837 424.889 837 512.667C837 561.556 825.472 608.222 802.417 652.667C779.361 697.111 748.389 736.556 709.5 771H811.167V821H620.333Z" fill="white"/>
</g>
</g>
<defs>
<clipPath id="clip0_19_4">
<rect width="1024" height="1024" fill="white"/>
</clipPath>
</defs>
</svg> 